<?xml version="1.0" encoding="UTF-8"?>
<svg id="Layer_1" data-name="Layer 1" xmlns="http://www.w3.org/2000/svg" viewBox="0 0 32 31.8">
  <defs>
    <style>
      .cls-1 {
        fill: #19355c;
        stroke-width: 0px;
      }
    </style>
  </defs>
  <path class="cls-1" d="M32,16c0,7.96-5.82,14.57-13.44,15.8v-12.83h3.52c.23,0,.43-.17.45-.4l.54-4.65c.01-.13-.03-.26-.11-.35-.09-.1-.21-.15-.34-.15h-4.06v-2.92c0-.88.47-1.32,1.4-1.32h2.66c.25,0,.45-.21.45-.46v-4.27c0-.24-.2-.45-.45-.45h-3.83c-.63,0-2.84.12-4.59,1.73-1.93,1.78-1.66,3.91-1.6,4.28v3.41h-3.22c-.25,0-.45.2-.45.45v4.59c0,.25.2.45.45.45h3.07v12.64s0,.04.01.06C5.33,30,0,23.62,0,16,0,7.16,7.16,0,16,0s16,7.16,16,16Z"/>
</svg>