<?xml version="1.0" encoding="UTF-8"?>
<svg id="Layer_2" data-name="Layer 2" xmlns="http://www.w3.org/2000/svg" viewBox="0 0 32.1 32">
  <defs>
    <style>
      .cls-1 {
        fill: #000;
        stroke-width: 0px;
      }
    </style>
  </defs>
  <path class="cls-1" d="M27.56,0H4.64C2.14,0,.1,2.04.1,4.54v22.92c0,2.5,2.04,4.54,4.54,4.54h22.92c2.5,0,4.54-2.04,4.54-4.54V4.54c0-2.5-2.04-4.54-4.54-4.54ZM31.1,14c0,.55-.45,1-1,1h-7.69c.16.32.29.65.39,1h7.08c.67,0,1.22.55,1.22,1.22v7.78c0,3.3-2.7,6-6,6H7.1c-3.3,0-6-2.7-6-6v-7.78c0-.67.55-1.22,1.22-1.22h7.08c.1-.35.23-.68.39-1H2.1c-.55,0-1-.45-1-1v-7.5C1.1,3.48,3.58,1,6.6,1h19c3.02,0,5.5,2.48,5.5,5.5v7.5Z"/>
  <path class="cls-1" d="M23.02,17c-.05-.34-.12-.68-.22-1-.1-.35-.23-.68-.39-1-1.11-2.37-3.51-4-6.31-4s-5.2,1.63-6.31,4c-.16.32-.29.65-.39,1-.1.32-.17.66-.22,1-.06.32-.08.66-.08,1,0,3.87,3.13,7,7,7s7-3.13,7-7c0-.34-.02-.68-.08-1ZM16.1,24c-3.31,0-6-2.69-6-6,0-.34.03-.68.09-1,.06-.34.14-.68.26-1,.12-.35.27-.68.45-1,1.04-1.79,2.98-3,5.2-3s4.16,1.21,5.2,3c.18.32.33.65.45,1,.12.32.2.66.26,1,.06.32.09.66.09,1,0,3.31-2.69,6-6,6Z"/>
  <rect class="cls-1" x="21.1" y="5" width="8" height="6" rx="1.91" ry="1.91"/>
</svg>