<?xml version="1.0" encoding="UTF-8"?>
<svg id="Layer_2" data-name="Layer 2" xmlns="http://www.w3.org/2000/svg" viewBox="0 0 32.07 32.02">
  <defs>
    <style>
      .cls-1 {
        fill: #000;
        stroke-width: 0px;
      }
    </style>
  </defs>
  <g id="SVGRepo_iconCarrier" data-name="SVGRepo iconCarrier">
    <g>
      <path class="cls-1" d="M7.51,10.26H1.09c-.29,0-.52.23-.52.52v20.64c0,.29.23.52.52.52h6.42c.29,0,.52-.23.52-.52V10.78c0-.29-.23-.52-.52-.52Z"/>
      <path class="cls-1" d="M4.3,0C1.97,0,.07,1.9.07,4.23s1.9,4.24,4.24,4.24,4.24-1.9,4.24-4.24c0-2.33-1.9-4.23-4.24-4.23Z"/>
      <path class="cls-1" d="M23.85,9.75c-2.58,0-4.49,1.11-5.64,2.37v-1.34c0-.29-.23-.52-.52-.52h-6.15c-.29,0-.52.23-.52.52v20.64c0,.29.23.52.52.52h6.41c.29,0,.52-.23.52-.52v-10.21c0-3.44.93-4.78,3.33-4.78,2.61,0,2.82,2.15,2.82,4.96v10.03c0,.29.23.52.52.52h6.41c.29,0,.52-.23.52-.52v-11.32c0-5.12-.98-10.35-8.21-10.35Z"/>
    </g>
  </g>
</svg>