<?xml version="1.0" encoding="UTF-8"?>
<svg xmlns="http://www.w3.org/2000/svg" version="1.1" viewBox="0 0 600 800">
  <defs>
    <style>
      .cls-1 {
        fill: #19355c;
      }

      .cls-1, .cls-2 {
        stroke-width: 0px;
      }

      .cls-2 {
        fill: #53b848;
      }

      .cls-3 {
        display: none;
      }
    </style>
  </defs>
  <g id="Layer_6" data-name="Layer 6" class="cls-3">
    <rect class="cls-2" width="600" height="800"/>
  </g>
  <g id="Layer_5" data-name="Layer 5">
    <path class="cls-1" d="M362.14,210.5v55.13l-60.07-34.69c-1.55-.89-3.45-.89-5,0l-60.07,34.69v-55.13c0-5.52,4.48-10,10-10h105.14c5.52,0,10,4.48,10,10Z"/>
    <path class="cls-1" d="M281.67,164.53h36.67c2.76,0,5,2.24,5,5v27h-46.67v-27c0-2.76,2.24-5,5-5Z"/>
  </g>
  <g id="Layer_7" data-name="Layer 7">
    <path class="cls-1" d="M298.32,237.5v158.38c-11.94-6.93-23.73-13.94-36.4-19.49-.03-18.15-.05-36.31-.08-54.46-17.43-1.83-34.43-2.38-51.95-1.61l-.12,41.77c-11.74-1.29-23.63-1.22-35.35.24,0-12.23-3.73-32.17,0-43.84,4.78-14.95,17.62-18.79,31.02-26.64,30.95-18.12,61.91-36.24,92.86-54.36ZM223.92,286.22c-6.06,7.46-11.43,9.58-13.82,19.72,17.08-1.94,33.94-2.91,51.12-2.96,1.55-10.89,3.61-21.48,5.75-32.27-14.46,4.9-28.79,10.07-43.05,15.51Z"/>
    <path class="cls-1" d="M393.78,292.08c25.44,11.39,30.95,17.67,30.96,44.4.02,26.78-.03,53.57-.03,80.35-11.45,2.1-21.91,3.32-33.53,3.88.03-24.43.07-48.87.1-73.3-19.51-1.38-38.22-4.22-57.29-8.6-.03,24.13-.07,48.25-.1,72.38-11.3-3.91-22.22-8.87-32.67-14.67v-159.02c8.22,4.84,16.44,9.69,24.65,14.53,5.11,21.47,8.17,40.88,8.15,62.95,19.01,4.52,37.89,7.91,57.28,10.22,0-22.33-7.25-32.43-22.52-47.88,8.34,4.91,16.67,9.83,25.01,14.74Z"/>
  </g>
  <g id="Layer_1" data-name="Layer 1">
    <path class="cls-1" d="M389.47,499.2c-15.68,0-32.88-1.94-51.17-6.95-19.31-5.28-38.61-13.65-57.36-24.86-35.91-21.48-71.29-30.05-105.16-25.46-36.77,4.97-58.83,24.16-59.05,24.35-4.13,3.65-10.44,3.28-14.1-.83-3.66-4.11-3.32-10.41.78-14.08,1.06-.95,26.54-23.42,69.7-29.25,38.47-5.21,78.21,4.25,118.11,28.12,17.2,10.29,34.82,17.94,52.37,22.74,33.72,9.23,67.36,8.37,99.97-2.56,24.54-8.23,39.28-19.4,39.42-19.51,4.38-3.35,10.65-2.54,14.02,1.83,3.36,4.37,2.57,10.63-1.79,14-.68.53-16.99,13.01-44.45,22.36-15.46,5.26-36.46,10.12-61.27,10.12Z"/>
    <path class="cls-1" d="M389.46,469.25c-36.69,0-73.15-10.7-108.53-31.86-35.91-21.48-71.29-30.05-105.16-25.46-36.77,4.97-58.83,24.16-59.05,24.35-4.13,3.65-10.44,3.28-14.1-.83-3.66-4.11-3.32-10.41.78-14.08,1.06-.95,26.54-23.42,69.7-29.25,38.47-5.21,78.21,4.25,118.11,28.12,35.19,21.05,71.33,30.73,107.43,28.78,50.67-2.73,84-27.86,84.33-28.12,4.38-3.35,10.65-2.54,14.02,1.83,3.36,4.37,2.57,10.63-1.79,14-1.54,1.19-38.3,29.17-95.47,32.26-3.42.19-6.84.28-10.26.28Z"/>
    <path class="cls-1" d="M495.19,406.72c-1.07.83-26.81,20.48-68.52,28.83-12.14,2.44-24.42,3.66-36.73,3.66-36.71,0-73.8-10.75-109-31.82-35.91-21.48-71.3-30.05-105.17-25.46-36.77,4.97-58.83,24.16-59.05,24.35-4.13,3.65-10.44,3.28-14.11-.83-3.66-4.12-3.32-10.41.78-14.09,1.07-.95,26.55-23.42,69.7-29.25.61-.08,1.22-.16,1.84-.24,37.9-4.67,77.01,4.87,116.27,28.36,43.3,25.9,87.55,34.55,131.54,25.72.83-.17,1.65-.34,2.47-.51,35.42-7.66,57.54-24.38,57.76-24.55,4.37-3.36,10.65-2.54,14.01,1.82,3.37,4.37,2.57,10.63-1.79,14.01Z"/>
  </g>
</svg>