<?xml version="1.0" encoding="UTF-8"?>
<svg id="Layer_1" data-name="Layer 1" xmlns="http://www.w3.org/2000/svg" viewBox="0 0 212.6 5.68">
  <defs>
    <style>
      .cls-1 {
        fill: #19355cc;
        stroke-width: 0px;
      }
    </style>
  </defs>
  <path class="cls-1" d="M17.91,0c6.54.09,12.72.59,18.65,1.33,8.03,1,16.48,1.46,25.05,1.77,4.46.16,8.78-.11,12.96-.51,3.23-.31,6.38-.69,9.57-1.04,8.71-.95,17.72-1.42,27.07-1.24,5.48.11,10.69.58,15.79,1.14,3.26.36,6.45.78,9.74,1.11,5.96.6,12.18.96,18.37.67,6.47-.31,12.85-.82,19.11-1.38,5.93-.53,11.64-1.26,17.95-1.39,6.42-.13,12.4.29,17.87,1.27,1.2.21,3.15.46,2.38.99-.72.5-2.69.37-4.22.32-1.27-.04-2.54-.12-3.76-.23-5.77-.5-11.48-.42-17.13.1-2.32.21-4.64.45-6.83.74-8.33,1.13-17.26,1.59-26.27,1.97-5.23.22-10.24-.16-15.18-.55-7.73-.61-15.38-1.3-23.08-1.94-9.4-.78-18.62-.6-27.65.43-2.83.32-5.71.61-8.53.95-10.95,1.31-22.09,1.16-33.22.22-5.21-.44-10.28-1.04-15.35-1.6-4.58-.51-9.17-1.07-14.13-1.04-3.51.02-7,.22-10.51.34-1.57.05-3.16.11-4.73.09-.63,0-1.57-.19-1.77-.35-.2-.17.24-.42.56-.61.2-.11.67-.21,1.1-.27C6.8.52,12.13.01,17.91,0Z"/>
</svg>