<?xml version="1.0" encoding="UTF-8"?>
<svg id="Layer_1" data-name="Layer 1" xmlns="http://www.w3.org/2000/svg" viewBox="0 0 127.19 3.61">
  <defs>
    <style>
      .cls-1 {
        fill: #19355c;
        stroke-width: 0px;
      }
    </style>
  </defs>
  <path class="cls-1" d="M.09.39C8.14-.82,15.88,2.66,23.9,2.45c5.33.19,10.54-.36,15.76-1.5,7.91-1.39,16.16-1.26,24.01.4,7.75,1.64,15.87,1.7,23.67.31,2.6-.51,5.24-1.07,7.92-1.3,5.35-.43,10.74-.4,16.04.45,2.65.43,5.23,1.09,7.85,1.41,2.62.35,5.27.46,7.93.7.06,0,.11.06.1.12-2.56.49-5.46.17-8.12-.11-2.67-.32-5.28-.97-7.88-1.38-5.22-.81-10.59-.82-15.84-.37-5.28.53-10.49,2.15-15.84,2.2-5.35.22-10.76-.06-16-1.2-7.76-1.6-15.87-1.64-23.65-.21-2.59.52-5.24,1.09-7.93,1.33-5.36.46-10.76.46-16.08-.4-2.67-.44-5.24-1.09-7.85-1.41C5.39,1.14,2.75,1,.09.61c-.12-.01-.13-.21,0-.22H.09Z"/>
</svg>