<?xml version="1.0" encoding="UTF-8"?>
<svg id="Layer_1" data-name="Layer 1" xmlns="http://www.w3.org/2000/svg" version="1.1" viewBox="0 0 212.6 5.7">
  <defs>
    <style>
      .cls-1 {
        fill: #19355c;
        stroke-width: 0px;
      }
    </style>
  </defs>
  <path class="cls-1" d="M128.9.7c3.2,0,6.3.2,9.6.3,4.2.1,8.5.2,13,.1,8.6-.1,17-.3,25-.6,5.9-.2,12.1-.4,18.7-.4s11.1,0,16.2.4h1.1c.3,0,.8.1.6.2-.2,0-1.1.1-1.8.1h-15.2c-5,0-9.5.2-14.1.4-5.1.2-10.1.4-15.4.5-11.1.3-22.3.4-33.2,0-2.8,0-5.7-.2-8.5-.3-6-.2-12.1-.3-18.2-.2-6.2,0-12.2,0-18.2.2-2.8,0-5.7.2-8.5.3-11,.4-22.1.3-33.2,0-5.2-.1-10.3-.3-15.4-.5-4.6-.2-9.2-.4-14.1-.4H2.1c-.6,0-1.6,0-1.8-.1-.2,0,.2-.1.6-.2h1.1c4.8-.3,10.1-.5,15.9-.5s12.7.2,18.7.4c8,.3,16.5.5,25,.6,4.5,0,8.8,0,13-.1,3.2,0,6.4-.2,9.6-.3,7.2-.2,14.7-.4,22.4-.4,0,0,15,.2,22.3.5Z"/>
</svg>