<?xml version="1.0" encoding="UTF-8"?>
<svg id="Layer_1" data-name="Layer 1" xmlns="http://www.w3.org/2000/svg" version="1.1" viewBox="0 0 212.6 5.7">
  <defs>
    <style>
      .cls-1 {
        fill: #1a365c;
        stroke-width: 0px;
      }
    </style>
  </defs>
  <path class="cls-1" d="M106.3.7c7.7,0,15.1.4,22.4,1.2,3.2.3,6.3.7,9.6,1,4.2.4,8.5.6,13,.4,8.6-.3,17-.9,25-1.9C182.2.7,188.4.1,194.9,0c5.8,0,11.1.4,16.2,1.2.4,0,.9.2,1.1.3.3.2.8.4.6.6-.2.2-1.1.3-1.8.4-1.6,0-3.2,0-4.7,0-3.5,0-7-.3-10.5-.3-5,0-9.5.6-14.1,1.1-5.1.6-10.1,1.2-15.4,1.7-11.1,1-22.3,1.2-33.2,0-2.8-.3-5.7-.6-8.5-.9-6-.7-12.1-.9-18.2-.8-6.2-.1-12.2.1-18.2.8-2.8.3-5.7.6-8.5.9-11,1.3-22.1,1-33.2,0-5.2-.5-10.3-1.1-15.4-1.7-4.6-.5-9.2-1.1-14.1-1.1s-7,.2-10.5.3c-1.6,0-3.2,0-4.7,0-.6,0-1.6-.2-1.8-.4-.2-.2.2-.4.6-.6.2,0,.7-.2,1.1-.3C6.6.4,11.9,0,17.7,0c6.5.1,12.7.7,18.7,1.4,8,1,16.5,1.5,25,1.9,4.5.2,8.8,0,13-.4,3.2-.3,6.4-.7,9.6-1,7.2-.8,14.7-1.2,22.4-1.2Z"/>
</svg>